<?xml version="1.0" encoding="UTF-8"?>
<!-- Generator: https://ezgif.com/webp-to-svg -->
<svg version="1.1" xmlns="http://www.w3.org/2000/svg" width="256" height="256">
<path d="M0 0 C0.78 0.08 1.56 0.17 2.36 0.26 C9.75 1.43 15.63 5.71 21.81 9.69 C25.13 11.79 28.45 13.88 31.77 15.96 C33.87 17.29 35.95 18.63 38.01 20 C45.52 24.79 52.07 26.32 60.88 27.19 C75.77 28.77 75.77 28.77 82 35 C84.26 41.83 84.31 48.37 84.3 55.51 C84.31 56.72 84.31 57.92 84.31 59.16 C84.32 61.71 84.32 64.26 84.32 66.8 C84.31 70.63 84.34 74.46 84.36 78.28 C84.4 92.79 83.67 106.74 81 121 C80.78 122.23 80.55 123.45 80.32 124.72 C79.71 127.83 79.04 130.91 78.31 134 C77.93 135.63 77.93 135.63 77.54 137.29 C72.74 156.92 64.64 180.89 52 197 C51.34 197 50.68 197 50 197 C50 197.99 50 198.98 50 200 C49.34 200 48.68 200 48 200 C48 200.99 48 201.98 48 203 C47.34 203 46.68 203 46 203 C45.69 203.78 45.38 204.57 45.06 205.38 C44 208 44 208 43 210 C42.34 210 41.68 210 41 210 C40.75 210.74 40.5 211.49 40.25 212.25 C38.89 215.25 37.38 216.76 35 219 C34.46 219.74 33.93 220.49 33.38 221.25 C32.92 221.83 32.47 222.41 32 223 C31.34 223 30.68 223 30 223 C29.67 223.99 29.34 224.98 29 226 C27.32 227.54 27.32 227.54 25.12 229.19 C24.31 229.8 23.5 230.41 22.66 231.04 C21.78 231.69 20.9 232.33 20 233 C19.11 233.67 18.22 234.34 17.31 235.02 C5.38 243.88 -4.63 250.56 -20 249 C-41.28 245.4 -61.73 234.67 -79 222 C-79.99 221.67 -80.98 221.34 -82 221 C-83.17 219.86 -84.34 218.71 -85.47 217.53 C-87.89 215.11 -90.52 212.95 -93.13 210.75 C-95.05 208.96 -96.56 207.19 -98 205 C-98 204.34 -98 203.68 -98 203 C-98.66 203 -99.32 203 -100 203 C-100.5 201.02 -100.5 201.02 -101 199 C-101.66 199 -102.32 199 -103 199 C-105 196 -105 196 -105 193 C-105.66 193 -106.32 193 -107 193 C-115.05 179.12 -121.11 165.97 -125.12 150.38 C-125.37 149.44 -125.61 148.51 -125.86 147.54 C-126.64 144.37 -127.33 141.2 -128 138 C-128.14 137.37 -128.27 136.74 -128.41 136.09 C-131.43 121.62 -131.47 107.16 -131.39 92.43 C-131.37 89.03 -131.38 85.62 -131.4 82.22 C-131.42 78.93 -131.41 75.63 -131.4 72.34 C-131.4 71.13 -131.41 69.92 -131.42 68.68 C-131.35 60.57 -130.93 53.36 -125.44 47.06 C-120.74 43.69 -114.82 43.17 -109.18 42.83 C-100.01 42 -94.58 37.43 -87.89 31.63 C-84.58 28.78 -81.15 26.06 -77.75 23.31 C-76.4 22.21 -75.05 21.12 -73.7 20.02 C-69.16 16.31 -64.6 12.64 -60 9 C-58.96 8.15 -58.96 8.15 -57.9 7.29 C-57.23 6.76 -56.56 6.23 -55.88 5.69 C-55.32 5.24 -54.76 4.79 -54.18 4.32 C-38.46 -5.22 -17.28 -2.08 0 0 Z " fill="#DFE3F2" transform="translate(151,4)"/>
<path d="M0 0 C3.62 0.38 6.57 2.28 9.7 4.03 C10.82 4.65 11.94 5.27 13.09 5.92 C13.68 6.25 14.27 6.58 14.87 6.92 C16.7 7.94 18.53 8.96 20.36 9.98 C25.72 12.97 31.04 15.99 36.28 19.18 C37.04 19.64 37.8 20.11 38.58 20.58 C39.93 21.41 41.28 22.26 42.62 23.12 C47.22 25.95 50.76 26.48 56 27 C58.52 29.52 58.26 31.12 58.3 34.56 C58.3 35.71 58.3 35.71 58.3 36.88 C58.31 37.68 58.31 38.48 58.32 39.3 C58.33 41.91 58.32 44.52 58.31 47.12 C58.31 48.01 58.31 48.9 58.31 49.81 C58.26 64.06 57.57 77.95 55 92 C54.74 93.44 54.74 93.44 54.48 94.92 C49.69 121.04 40.15 143.9 24 165 C22.96 166.36 22.96 166.36 21.91 167.74 C19.98 170.2 18.01 172.61 16 175 C15.34 175.81 14.68 176.62 14 177.45 C7.96 184.53 -0.19 193.81 -9.34 196.75 C-11.92 196.67 -13.62 196.04 -16 195 C-17.2 194.5 -18.41 194.01 -19.65 193.5 C-29.46 189.16 -37.23 183.3 -45 176 C-45.89 175.2 -46.79 174.39 -47.71 173.57 C-61.3 160.83 -69.22 143.78 -74 126 C-74.34 124.75 -74.68 123.5 -75.03 122.21 C-79.91 103.4 -81.3 84.68 -81.44 65.31 C-81.45 64.44 -81.46 63.56 -81.47 62.66 C-81.5 60.14 -81.5 57.63 -81.5 55.11 C-81.51 54.35 -81.52 53.59 -81.53 52.81 C-81.48 49.35 -81.27 47.37 -79.18 44.55 C-77 43 -77 43 -73.64 42.05 C-69.53 40.87 -66.89 38.95 -63.69 36.25 C-62.46 35.25 -61.23 34.25 -60 33.25 C-59.35 32.72 -58.7 32.19 -58.03 31.65 C-53.74 28.17 -49.36 24.82 -44.99 21.44 C-40.96 18.32 -36.96 15.17 -32.99 11.96 C-32.18 11.31 -31.36 10.66 -30.52 9.98 C-28.95 8.73 -27.39 7.46 -25.84 6.18 C-25.13 5.62 -24.42 5.05 -23.7 4.47 C-23.08 3.97 -22.46 3.47 -21.82 2.95 C-20 2 -20 2 -17.77 2.35 C-16.89 2.67 -16.89 2.67 -16 3 C-15.99 3.67 -15.97 4.35 -15.96 5.04 C-15.88 8.16 -15.78 11.26 -15.69 14.38 C-15.66 15.44 -15.64 16.5 -15.62 17.59 C-15.4 24.22 -15 30.96 -12 37 C-8.98 38.76 -8.98 38.76 -6 39 C-2.8 31.14 -2.53 23.99 -2.44 15.56 C-2.4 13.04 -2.36 10.52 -2.31 8 C-2.3 6.9 -2.28 5.79 -2.27 4.65 C-2 2 -2 2 0 0 Z " fill="#D53D2A" transform="translate(149,26)"/>
<path d="M0 0 C0.78 0.08 1.56 0.17 2.36 0.26 C9.75 1.43 15.63 5.71 21.81 9.69 C25.13 11.79 28.45 13.88 31.77 15.96 C33.87 17.29 35.95 18.63 38.01 20 C45.52 24.79 52.07 26.32 60.88 27.19 C75.77 28.77 75.77 28.77 82 35 C84.26 41.83 84.31 48.37 84.3 55.51 C84.31 56.72 84.31 57.92 84.31 59.16 C84.32 61.71 84.32 64.26 84.32 66.8 C84.31 70.63 84.34 74.46 84.36 78.28 C84.4 92.79 83.67 106.74 81 121 C80.78 122.23 80.55 123.45 80.32 124.72 C79.71 127.83 79.04 130.91 78.31 134 C77.93 135.63 77.93 135.63 77.54 137.29 C72.74 156.92 64.64 180.89 52 197 C51.34 197 50.68 197 50 197 C50 197.99 50 198.98 50 200 C49.34 200 48.68 200 48 200 C48 200.99 48 201.98 48 203 C47.34 203 46.68 203 46 203 C45.69 203.78 45.38 204.57 45.06 205.38 C44 208 44 208 43 210 C42.34 210 41.68 210 41 210 C40.75 210.74 40.5 211.49 40.25 212.25 C38.89 215.25 37.38 216.76 35 219 C34.46 219.74 33.93 220.49 33.38 221.25 C32.92 221.83 32.47 222.41 32 223 C31.34 223 30.68 223 30 223 C29.67 223.99 29.34 224.98 29 226 C27.32 227.54 27.32 227.54 25.12 229.19 C24.31 229.8 23.5 230.41 22.66 231.04 C21.78 231.69 20.9 232.33 20 233 C19.11 233.67 18.22 234.34 17.31 235.02 C5.38 243.88 -4.63 250.56 -20 249 C-41.28 245.4 -61.73 234.67 -79 222 C-79.99 221.67 -80.98 221.34 -82 221 C-83.17 219.86 -84.34 218.71 -85.47 217.53 C-87.89 215.11 -90.52 212.95 -93.13 210.75 C-95.05 208.96 -96.56 207.19 -98 205 C-98 204.34 -98 203.68 -98 203 C-98.66 203 -99.32 203 -100 203 C-100.5 201.02 -100.5 201.02 -101 199 C-101.66 199 -102.32 199 -103 199 C-105 196 -105 196 -105 193 C-105.66 193 -106.32 193 -107 193 C-115.05 179.12 -121.11 165.97 -125.12 150.38 C-125.37 149.44 -125.61 148.51 -125.86 147.54 C-126.64 144.37 -127.33 141.2 -128 138 C-128.14 137.37 -128.27 136.74 -128.41 136.09 C-131.43 121.62 -131.47 107.16 -131.39 92.43 C-131.37 89.03 -131.38 85.62 -131.4 82.22 C-131.42 78.93 -131.41 75.63 -131.4 72.34 C-131.4 71.13 -131.41 69.92 -131.42 68.68 C-131.35 60.57 -130.93 53.36 -125.44 47.06 C-120.74 43.69 -114.82 43.17 -109.18 42.83 C-100.01 42 -94.58 37.43 -87.89 31.63 C-84.58 28.78 -81.15 26.06 -77.75 23.31 C-76.4 22.21 -75.05 21.12 -73.7 20.02 C-69.16 16.31 -64.6 12.64 -60 9 C-58.96 8.15 -58.96 8.15 -57.9 7.29 C-57.23 6.76 -56.56 6.23 -55.88 5.69 C-55.32 5.24 -54.76 4.79 -54.18 4.32 C-38.46 -5.22 -17.28 -2.08 0 0 Z M-31.85 6.87 C-40.85 6.89 -46 11.02 -52.47 16.67 C-54.7 18.61 -57.01 20.45 -59.31 22.31 C-61.21 23.87 -63.1 25.44 -65 27 C-69.67 30.84 -74.37 34.66 -79.08 38.45 C-80.85 39.88 -82.59 41.32 -84.34 42.76 C-91.57 48.54 -96.8 50.62 -105.93 51.18 C-106.9 51.24 -107.87 51.31 -108.88 51.38 C-109.76 51.4 -110.64 51.43 -111.55 51.46 C-114.82 52.18 -115.91 53.41 -118 56 C-118.62 58.7 -118.62 58.7 -118.55 61.7 C-118.57 62.85 -118.59 64 -118.61 65.19 C-118.61 66.44 -118.6 67.68 -118.6 68.97 C-118.61 70.92 -118.61 70.92 -118.63 72.92 C-118.64 75.7 -118.64 78.48 -118.63 81.25 C-118.62 84.04 -118.64 86.83 -118.67 89.62 C-119.2 129.42 -110.03 169.15 -81.75 198.75 C-71.91 208.21 -60.56 215.69 -48 221 C-46.05 221.96 -44.13 222.96 -42.2 223.96 C-31.21 229.64 -20.71 234.3 -8 232 C-2.82 229.62 1.53 226.52 6 223 C6.56 222.57 7.12 222.13 7.7 221.69 C30.89 203.6 45.05 179.48 57 153 C57.45 152.03 57.45 152.03 57.9 151.04 C61.4 143.35 63.77 135.65 65.69 127.44 C65.97 126.23 65.97 126.23 66.26 124.99 C66.92 122.01 67.47 119.01 68 116 C68.13 115.28 68.26 114.55 68.39 113.81 C70.95 98.84 71.44 84.12 71.34 68.95 C71.31 65.19 71.32 61.42 71.32 57.65 C71.32 55.25 71.31 52.85 71.3 50.45 C71.3 48.77 71.3 48.77 71.3 47.05 C71.29 46.02 71.28 44.99 71.27 43.93 C71.27 43.02 71.27 42.11 71.26 41.18 C71.2 38.79 71.2 38.79 69 37 C66.32 36.54 66.32 36.54 63.16 36.35 C47.21 34.87 35.4 32.08 22.13 22.53 C19.46 20.62 16.71 18.85 13.94 17.09 C12.27 16.03 10.6 14.93 8.95 13.84 C2.15 9.6 -3.04 8.39 -10.94 7.81 C-11.9 7.73 -12.86 7.65 -13.86 7.56 C-19.87 7.08 -25.84 7.15 -31.85 6.87 Z " fill="#010101" transform="translate(151,4)"/>
<path d="M0 0 C3.62 0.38 6.57 2.28 9.7 4.03 C11.38 4.96 11.38 4.96 13.09 5.92 C13.97 6.41 13.97 6.41 14.87 6.92 C16.7 7.94 18.53 8.96 20.36 9.98 C25.72 12.97 31.04 15.99 36.28 19.18 C37.04 19.64 37.8 20.11 38.58 20.58 C39.93 21.41 41.28 22.26 42.62 23.12 C47.22 25.95 50.76 26.48 56 27 C58.59 29.59 58.24 31.36 58.25 34.89 C58.24 36.1 58.24 36.1 58.23 37.34 C58.23 38.18 58.23 39.01 58.23 39.88 C58.23 41.65 58.22 43.43 58.21 45.21 C58.19 47.9 58.19 50.58 58.19 53.27 C58.17 61.89 58.07 70.43 57 79 C56.67 79 56.34 79 56 79 C55.34 82.96 54.68 86.92 54 91 C52.17 91.31 50.35 91.63 48.46 91.95 C47.27 92.16 46.08 92.36 44.85 92.58 C42.23 93.03 39.6 93.48 36.97 93.93 C30.74 95 24.52 96.08 18.3 97.19 C17.29 97.37 16.27 97.55 15.22 97.73 C13.34 98.07 11.47 98.4 9.59 98.74 C8.73 98.89 7.87 99.05 6.99 99.2 C6.26 99.33 5.54 99.46 4.79 99.6 C0.54 100.21 -3.73 100.57 -8 101 C-8 80.54 -8 60.08 -8 39 C-7.34 39 -6.68 39 -6 39 C-2.8 31.14 -2.53 23.99 -2.44 15.56 C-2.4 13.04 -2.36 10.52 -2.31 8 C-2.3 6.9 -2.28 5.79 -2.27 4.65 C-2 2 -2 2 0 0 Z " fill="#7EAF44" transform="translate(149,26)"/>
<path d="M0 0 C0 30.36 0 60.72 0 92 C-6.26 92 -9.36 91.42 -14.62 88.69 C-15.32 88.33 -16.01 87.98 -16.73 87.61 C-24.03 83.71 -29.99 78.64 -36 73 C-36.89 72.2 -37.79 71.39 -38.71 70.57 C-55.88 54.48 -63.1 32.43 -68 10 C-66.96 9.83 -66.96 9.83 -65.9 9.66 C-62.68 9.15 -59.47 8.64 -56.25 8.12 C-55.16 7.95 -54.07 7.78 -52.94 7.6 C-45.62 6.43 -38.31 5.22 -31 4 C-26.71 3.28 -22.42 2.58 -18.12 1.88 C-17.04 1.69 -15.95 1.51 -14.83 1.32 C-13.25 1.07 -13.25 1.07 -11.63 0.8 C-10.69 0.65 -9.75 0.49 -8.79 0.34 C-6 0 -6 0 0 0 Z " fill="#140D8D" transform="translate(140,129)"/>
<path d="M0 0 C0.85 -0.01 1.69 -0.02 2.56 -0.03 C5.91 0.7 6.99 1.73 9 4.5 C9.69 7.17 10.19 9.61 10.56 12.31 C11.37 17.86 12.68 22.34 15 27.5 C15.72 29.61 16.38 31.73 17.04 33.86 C21.1 48.36 21.1 48.36 29.88 59.87 C32.54 60.66 34.51 60.49 37.25 60.12 C38.14 60.01 39.03 59.9 39.95 59.79 C40.63 59.69 41.3 59.6 42 59.5 C42.33 58.18 42.66 56.86 43 55.5 C43.51 56.3 44.02 57.1 44.55 57.92 C55.96 75.16 71.79 90.35 92 96.5 C95.19 97.09 97.07 97.05 99.89 95.39 C102.07 93.78 104.13 92.08 106.19 90.31 C107.32 89.36 107.32 89.36 108.47 88.38 C115.1 82.64 120.74 76.51 126 69.5 C126.48 68.87 126.97 68.24 127.46 67.58 C135.59 56.85 142.02 45.55 148 33.5 C149.12 37.25 149.12 37.25 148 39.5 C148.78 39.31 149.57 39.13 150.38 38.94 C153 38.5 153 38.5 155 39.5 C155 38.84 155 38.18 155 37.5 C155.99 37.17 156.98 36.84 158 36.5 C162.22 29.67 165.18 22 168 14.5 C168.66 14.5 169.32 14.5 170 14.5 C166.13 36.23 152.61 59.35 139 76.5 C138.57 77.05 138.13 77.6 137.69 78.17 C127.06 91.58 114.46 103.77 99 111.5 C85.19 112.88 73.65 108.99 61.81 102.09 C58.61 100.28 55.32 98.71 52 97.12 C41.38 91.84 32.5 84.72 24 76.5 C23.33 75.86 22.67 75.22 21.98 74.56 C4.66 56.54 -4.65 31.27 -9.13 7.14 C-9 4.5 -9 4.5 -7.34 2.18 C-4.64 0.24 -3.29 -0.04 0 0 Z " fill="#B9C2EA" transform="translate(44,124.5)"/>
<path d="M0 0 C-6.04 38.23 -25.82 75.74 -57.44 99.07 C-59 100 -59 100 -61 100 C-61 69.97 -61 39.94 -61 9 C-51.68 7.52 -42.35 6.03 -32.75 4.5 C-29.81 4.03 -26.87 3.56 -23.84 3.08 C-21.52 2.71 -19.19 2.34 -16.86 1.97 C-15.65 1.77 -14.44 1.58 -13.19 1.38 C-12.04 1.2 -10.88 1.01 -9.69 0.83 C-8.68 0.67 -7.68 0.51 -6.64 0.34 C-4 0 -4 0 0 0 Z " fill="#DBA52E" transform="translate(202,119)"/>
<path d="M0 0 C1.97 0.14 3.94 0.2 5.92 0.25 C18.31 1.06 27.66 8.9 37.55 15.75 C50.03 24.31 60.46 27.42 75.49 28.36 C76.36 28.42 77.23 28.47 78.13 28.53 C78.82 28.54 79.52 28.55 80.24 28.55 C83.55 29.55 85.54 31.23 87.25 34.16 C88.02 38.27 87.95 42.35 87.92 46.53 C87.92 47.76 87.92 49 87.93 50.27 C87.93 53.57 87.91 56.86 87.89 60.16 C87.87 63.4 87.91 66.64 87.93 69.88 C87.97 96.78 84.74 125.52 73.25 150.16 C72.84 151.07 72.42 151.98 72 152.92 C63.7 171.17 54.33 187.89 41.25 203.16 C40.63 203.91 40.01 204.66 39.37 205.44 C30.71 215.65 17.25 227.82 4.25 232.16 C-20.95 234.23 -46.67 218.4 -65.75 203.16 C-66.51 202.55 -67.27 201.95 -68.05 201.32 C-69.67 199.99 -71.22 198.58 -72.75 197.16 C-72.75 196.5 -72.75 195.84 -72.75 195.16 C-73.41 195.16 -74.07 195.16 -74.75 195.16 C-76.37 193.34 -77.85 191.53 -79.31 189.59 C-79.75 189.01 -80.2 188.43 -80.65 187.83 C-103.21 157.51 -110.71 122.4 -110.4 85.11 C-110.37 81.61 -110.39 78.11 -110.42 74.61 C-110.44 71.21 -110.43 67.82 -110.41 64.43 C-110.43 62.56 -110.43 62.56 -110.44 60.65 C-110.31 51.09 -110.31 51.09 -107.33 47.39 C-104.93 45.31 -103.76 44.33 -100.69 43.84 C-99.91 43.71 -99.13 43.57 -98.33 43.43 C-95.75 43.16 -95.75 43.16 -92.89 43.11 C-83.99 42.89 -79.42 39.86 -72.75 34.16 C-71.8 33.38 -70.86 32.59 -69.89 31.79 C-67.89 30.13 -65.9 28.47 -63.92 26.79 C-60.02 23.52 -56 20.4 -51.98 17.28 C-49.08 15.02 -46.21 12.73 -43.41 10.34 C-42.61 9.67 -42.61 9.67 -41.79 8.97 C-40.35 7.74 -38.91 6.49 -37.47 5.25 C-26.61 -3.11 -12.91 -1 0 0 Z M-19.6 3.02 C-28.6 3.05 -33.75 7.18 -40.22 12.82 C-42.45 14.77 -44.76 16.61 -47.06 18.47 C-48.96 20.03 -50.85 21.59 -52.75 23.16 C-57.42 27 -62.11 30.82 -66.83 34.61 C-68.59 36.03 -70.34 37.47 -72.09 38.92 C-79.32 44.69 -84.55 46.78 -93.67 47.34 C-94.65 47.4 -95.62 47.46 -96.62 47.53 C-97.51 47.56 -98.39 47.59 -99.3 47.62 C-102.57 48.34 -103.65 49.57 -105.75 52.16 C-106.36 54.85 -106.36 54.85 -106.3 57.86 C-106.32 59.01 -106.34 60.16 -106.36 61.34 C-106.35 62.59 -106.35 63.84 -106.35 65.12 C-106.36 67.08 -106.36 67.08 -106.38 69.08 C-106.39 71.85 -106.39 74.63 -106.38 77.41 C-106.37 80.2 -106.38 82.99 -106.42 85.77 C-106.95 125.58 -97.78 165.3 -69.5 194.91 C-59.66 204.37 -48.31 211.85 -35.75 217.16 C-33.8 218.12 -31.88 219.11 -29.95 220.11 C-18.96 225.8 -8.45 230.46 4.25 228.16 C9.43 225.78 13.79 222.67 18.25 219.16 C18.81 218.72 19.37 218.29 19.95 217.84 C43.14 199.75 57.3 175.64 69.25 149.16 C69.7 148.19 69.7 148.19 70.15 147.2 C73.65 139.51 76.02 131.8 77.94 123.59 C78.22 122.38 78.22 122.38 78.52 121.15 C79.17 118.16 79.72 115.17 80.25 112.16 C80.38 111.43 80.51 110.71 80.64 109.97 C83.2 95 83.69 80.27 83.59 65.11 C83.56 61.34 83.57 57.58 83.57 53.81 C83.57 51.41 83.56 49.01 83.55 46.61 C83.55 44.92 83.55 44.92 83.55 43.2 C83.54 42.17 83.54 41.14 83.53 40.08 C83.52 39.18 83.52 38.27 83.51 37.34 C83.45 34.95 83.45 34.95 81.25 33.16 C78.57 32.7 78.57 32.7 75.42 32.51 C59.46 31.02 47.65 28.24 34.38 18.68 C31.71 16.77 28.97 15.01 26.19 13.25 C24.52 12.18 22.86 11.09 21.2 10 C14.4 5.75 9.21 4.54 1.31 3.97 C0.35 3.89 -0.61 3.81 -1.61 3.72 C-7.62 3.23 -13.59 3.3 -19.6 3.02 Z " fill="#4F566E" transform="translate(138.7490234375,7.84375)"/>
<path d="M0 0 C0.88 0.32 0.88 0.32 1.77 0.65 C1.78 1.33 1.8 2 1.81 2.7 C1.89 5.81 1.98 8.92 2.08 12.03 C2.1 13.09 2.13 14.15 2.15 15.24 C2.42 26.84 2.42 26.84 7.77 36.65 C8.01 39.28 8.01 39.28 8 42.59 C8 43.8 8 45 7.99 46.25 C7.98 47.52 7.97 48.78 7.96 50.09 C7.96 51.94 7.96 51.94 7.95 53.83 C7.92 61.16 7.58 68.37 6.77 75.65 C6.44 74.99 6.11 74.33 5.77 73.65 C3.79 72.93 1.79 72.26 -0.23 71.65 C-0.23 70.99 -0.23 70.33 -0.23 69.65 C-0.88 69.47 -1.54 69.29 -2.21 69.1 C-7.16 67.68 -11.7 66.16 -16.23 63.65 C-16.56 64.31 -16.89 64.97 -17.23 65.65 C-17.89 65.65 -18.55 65.65 -19.23 65.65 C-19.23 64.99 -19.23 64.33 -19.23 63.65 C-20.55 63.32 -21.87 62.99 -23.23 62.65 C-23.23 61.66 -23.23 60.67 -23.23 59.65 C-24.3 59.41 -25.38 59.16 -26.48 58.9 C-30.39 57.6 -31.42 56.47 -34.23 53.65 C-37.87 52.38 -37.87 52.38 -41.23 51.65 C-40.9 53.63 -40.57 55.61 -40.23 57.65 C-41.55 57.65 -42.87 57.65 -44.23 57.65 C-52.23 49.26 -52.23 49.26 -52.23 44.65 C-52.89 44.65 -53.55 44.65 -54.23 44.65 C-54.56 45.64 -54.89 46.63 -55.23 47.65 C-56.38 47.38 -56.38 47.38 -57.54 47.09 C-60.32 46.43 -60.32 46.43 -63.23 47.65 C-62.66 44.37 -61.94 42.64 -59.23 40.65 C-58.17 40.39 -57.1 40.13 -56.01 39.87 C-51.9 38.55 -49.16 36.63 -45.92 33.9 C-44.69 32.9 -43.46 31.91 -42.23 30.91 C-41.26 30.11 -41.26 30.11 -40.27 29.3 C-35.97 25.83 -31.59 22.47 -27.22 19.09 C-23.19 15.97 -19.19 12.82 -15.22 9.62 C-14.41 8.96 -13.59 8.31 -12.75 7.64 C-11.18 6.38 -9.62 5.11 -8.07 3.83 C-7.36 3.27 -6.65 2.71 -5.93 2.13 C-5.31 1.62 -4.69 1.12 -4.05 0.6 C-2.23 -0.35 -2.23 -0.35 0 0 Z " fill="#DF5D29" transform="translate(131.23095703125,28.345458984375)"/>
<path d="M0 0 C0 13.53 0 27.06 0 41 C-7.04 41 -9.85 40.8 -16 39 C-19.14 38.67 -22.28 38.59 -25.44 38.5 C-34.39 38.16 -43.14 37.28 -52 36 C-51.34 36.66 -50.68 37.32 -50 38 C-51.13 38.12 -52.27 38.25 -53.44 38.38 C-54.61 38.58 -55.79 38.79 -57 39 C-57.33 39.66 -57.66 40.32 -58 41 C-62.37 30.87 -64.84 20.78 -67 10 C-65.96 9.83 -65.96 9.83 -64.9 9.66 C-61.68 9.15 -58.47 8.64 -55.25 8.12 C-54.16 7.95 -53.07 7.78 -51.94 7.6 C-45.63 6.59 -39.32 5.56 -33.02 4.5 C-27.7 3.62 -22.38 2.74 -17.06 1.88 C-15.97 1.69 -14.87 1.51 -13.74 1.32 C-12.68 1.15 -11.62 0.98 -10.54 0.8 C-9.59 0.65 -8.65 0.49 -7.67 0.34 C-5 0 -5 0 0 0 Z " fill="#2945B4" transform="translate(139,129)"/>
<path d="M0 0 C-1.4 8.84 -3.51 17.41 -6 26 C-6.48 27.67 -6.48 27.67 -6.97 29.37 C-7.45 30.86 -7.45 30.86 -7.94 32.38 C-8.21 33.25 -8.49 34.12 -8.78 35.02 C-10 37 -10 37 -12.42 37.88 C-15.93 38.04 -18.02 36.74 -21 35 C-20.5 34.01 -20.5 34.01 -20 33 C-22.76 29.93 -24.97 28.06 -29 27 C-32.23 27.3 -32.23 27.3 -35 28 C-35 27.34 -35 26.68 -35 26 C-35.99 26.33 -36.98 26.66 -38 27 C-38.66 26.67 -39.32 26.34 -40 26 C-40 25.34 -40 24.68 -40 24 C-40.99 24 -41.98 24 -43 24 C-45.19 22 -45.19 22 -47 20 C-47 20.66 -47 21.32 -47 22 C-46.01 22.33 -45.02 22.66 -44 23 C-44.66 24.32 -45.32 25.64 -46 27 C-46.96 26.32 -46.96 26.32 -47.94 25.62 C-51.84 23.55 -55.68 22.8 -60 22 C-60 23.98 -60 25.96 -60 28 C-60.33 28 -60.66 28 -61 28 C-61 21.73 -61 15.46 -61 9 C-53.64 7.82 -46.28 6.65 -38.91 5.48 C-35.49 4.94 -32.07 4.39 -28.65 3.85 C-24.72 3.22 -20.79 2.59 -16.86 1.97 C-15.02 1.67 -15.02 1.67 -13.14 1.37 C-12 1.19 -10.86 1.01 -9.69 0.83 C-8.68 0.67 -7.68 0.51 -6.64 0.34 C-4 0 -4 0 0 0 Z " fill="#F3C52A" transform="translate(202,119)"/>
<path d="M0 0 C0.86 0 1.71 0 2.6 0 C5.44 0.53 6.31 1.06 7.94 3.44 C8.49 5.87 8.49 5.87 8.81 8.88 C13.33 42.26 28.37 74.95 54.94 96.44 C53.95 96.77 52.96 97.1 51.94 97.44 C49.34 96.14 47 94.8 44.56 93.25 C43.85 92.8 43.14 92.35 42.41 91.89 C35.16 87.16 29.01 81.57 22.94 75.44 C22.29 74.81 21.64 74.18 20.96 73.53 C4.1 55.99 -4.84 30.49 -9.19 7.07 C-9.06 4.44 -9.06 4.44 -7.41 2.11 C-4.67 0.16 -3.32 -0.08 0 0 Z " fill="#B2B8D3" transform="translate(44.0625,124.5625)"/>
<path d="M0 0 C0.03 2.88 0.05 5.75 0.06 8.62 C0.07 9.43 0.08 10.24 0.09 11.07 C0.11 15.5 -0.1 19.64 -1 24 C-22.28 22.4 -22.28 22.4 -29.75 20.44 C-35.64 18.89 -41.32 18.59 -47.38 18.35 C-53.69 18.08 -59.8 17.25 -66 16 C-66.33 14.02 -66.66 12.04 -67 10 C-65.96 9.83 -65.96 9.83 -64.9 9.66 C-61.68 9.15 -58.47 8.64 -55.25 8.12 C-54.16 7.95 -53.07 7.78 -51.94 7.6 C-45.63 6.59 -39.32 5.56 -33.02 4.5 C-27.7 3.62 -22.38 2.74 -17.06 1.88 C-15.97 1.69 -14.87 1.51 -13.74 1.32 C-12.68 1.15 -11.62 0.98 -10.54 0.8 C-9.59 0.65 -8.65 0.49 -7.67 0.34 C-5.08 0.01 -2.61 -0.06 0 0 Z " fill="#3664C7" transform="translate(139,129)"/>
<path d="M0 0 C0.58 0.23 1.16 0.45 1.75 0.69 C1.79 1.94 1.82 3.2 1.86 4.49 C1.54 18.47 1.54 18.47 6.75 30.69 C6.82 32.37 6.83 34.06 6.81 35.75 C6.8 36.67 6.79 37.59 6.79 38.54 C6.77 39.25 6.76 39.96 6.75 40.69 C6.42 39.7 6.09 38.71 5.75 37.69 C3.65 36.66 3.65 36.66 1.19 36 C0.36 35.75 -0.47 35.5 -1.32 35.24 C-1.95 35.06 -2.59 34.87 -3.25 34.69 C-3.25 34.03 -3.25 33.37 -3.25 32.69 C-3.79 32.58 -4.32 32.48 -4.88 32.38 C-7.88 31.51 -10.49 30.13 -13.25 28.69 C-13.25 28.03 -13.25 27.37 -13.25 26.69 C-16.55 26.03 -19.85 25.37 -23.25 24.69 C-23.58 23.37 -23.91 22.05 -24.25 20.69 C-25.24 20.69 -26.23 20.69 -27.25 20.69 C-25.81 17.19 -24.09 15.54 -21.04 13.34 C-20.21 12.73 -19.37 12.13 -18.52 11.51 C-17.64 10.89 -16.77 10.26 -15.88 9.62 C-15.01 9 -14.15 8.38 -13.26 7.73 C-11.65 6.57 -10.03 5.41 -8.42 4.25 C-6.22 2.72 -6.22 2.72 -4.22 0.92 C-2.25 -0.31 -2.25 -0.31 0 0 Z " fill="#F6A329" transform="translate(131.25,33.3125)"/>
<path d="M0 0 C0.66 0 1.32 0 2 0 C2.33 20.13 2.66 40.26 3 61 C23.65 58.1 23.65 58.1 44.14 54.66 C50.73 53.53 57.36 52.78 64 52 C64.33 47.38 64.66 42.76 65 38 C65.33 38 65.66 38 66 38 C67.08 69.41 52.84 101.57 34 126 C33.31 126.9 32.62 127.8 31.91 128.73 C29.98 131.19 28.01 133.6 26 136 C25.34 136.81 24.68 137.62 24 138.45 C19.67 143.53 14.98 147.93 9.81 152.12 C9.23 152.61 8.65 153.1 8.05 153.6 C4.27 156.57 1.8 157.57 -3 157 C-1.68 156.67 -0.36 156.34 1 156 C1 125.64 1 95.28 1 64 C-20.51 67.46 -20.51 67.46 -42 71 C-45.29 71.55 -48.58 72.09 -51.88 72.62 C-53.08 72.83 -53.08 72.83 -54.3 73.03 C-58.59 73.72 -62.64 74.15 -67 74 C-64.15 72.1 -63.15 71.69 -59.93 71.25 C-59.12 71.14 -58.32 71.03 -57.49 70.91 C-56.63 70.8 -55.76 70.68 -54.88 70.56 C-53.05 70.31 -51.23 70.05 -49.4 69.79 C-48.03 69.59 -48.03 69.59 -46.64 69.39 C-42.89 68.84 -39.16 68.18 -35.44 67.5 C-29.28 66.39 -23.11 65.32 -16.94 64.31 C-15.78 64.12 -15.78 64.12 -14.59 63.91 C-13.85 63.79 -13.11 63.67 -12.34 63.55 C-11.37 63.39 -11.37 63.39 -10.38 63.23 C-6.94 62.9 -3.46 63 0 63 C0 42.21 0 21.42 0 0 Z M53.31 54.83 C52.16 55.01 51 55.19 49.81 55.38 C48.6 55.57 47.39 55.77 46.14 55.97 C44.47 56.23 44.47 56.23 42.76 56.5 C38.59 57.17 34.42 57.83 30.25 58.5 C16.27 60.73 16.27 60.73 2 63 C2 93.03 2 123.06 2 154 C6.77 152.09 9.57 150 13.19 146.56 C14.04 145.75 14.04 145.75 14.92 144.93 C40.07 120.96 56.65 91.23 63 57 C63 56.01 63 55.02 63 54 C59.59 54 56.66 54.29 53.31 54.83 Z " fill="#7C541D" transform="translate(139,65)"/>
<path d="M0 0 C7.36 1.04 14.66 1.49 22.08 1.69 C27.04 1.87 31.23 2.63 36 4.12 C37.64 4.38 39.29 4.6 40.94 4.75 C42.1 4.86 42.1 4.86 43.28 4.98 C44.13 5.05 44.13 5.05 45 5.12 C45.29 13.7 45.29 13.7 43 17.12 C38.14 17.21 33.51 16.91 28.69 16.25 C28.03 16.16 27.38 16.07 26.71 15.98 C22.18 15.34 17.73 14.5 13.26 13.57 C6.5 12.25 -0.13 12.02 -7 12.12 C-6.34 13.44 -5.68 14.76 -5 16.12 C-5.66 16.45 -6.32 16.78 -7 17.12 C-7.84 15.55 -8.67 13.96 -9.5 12.38 C-9.96 11.49 -10.43 10.61 -10.91 9.7 C-12 7.12 -12 7.12 -12 3.12 C-10.68 2.79 -9.36 2.47 -8 2.12 C-8.99 1.47 -9.98 0.81 -11 0.12 C-7.17 -1.24 -3.97 -0.59 0 0 Z " fill="#1E26A1" transform="translate(94,164.875)"/>
<path d="M0 0 C0.88 0.32 0.88 0.32 1.77 0.65 C1.77 2.3 1.77 3.95 1.77 5.65 C1.03 5.76 0.29 5.87 -0.47 5.98 C-3.42 6.7 -5.05 7.66 -7.48 9.46 C-8.25 10.02 -9.03 10.59 -9.82 11.17 C-10.62 11.76 -11.41 12.36 -12.23 12.97 C-13.03 13.55 -13.82 14.13 -14.64 14.73 C-21.86 19.38 -21.86 19.38 -27.23 25.65 C-26.24 25.65 -25.25 25.65 -24.23 25.65 C-23.74 27.63 -23.74 27.63 -23.23 29.65 C-21.59 29.87 -21.59 29.87 -19.92 30.09 C-16.23 30.65 -16.23 30.65 -13.23 31.65 C-13.23 32.31 -13.23 32.97 -13.23 33.65 C-11.87 34.09 -11.87 34.09 -10.48 34.53 C-3.6 36.91 -3.6 36.91 -2.23 39.65 C-0.35 40.56 -0.35 40.56 1.83 41.28 C2.57 41.54 3.3 41.8 4.05 42.07 C4.62 42.26 5.19 42.46 5.77 42.65 C6.1 40.67 6.43 38.69 6.77 36.65 C7.1 36.65 7.43 36.65 7.77 36.65 C7.95 48.18 7.95 48.18 6.77 53.65 C6.11 53.32 5.45 52.99 4.77 52.65 C4.77 51.99 4.77 51.33 4.77 50.65 C3.45 50.65 2.13 50.65 0.77 50.65 C0.77 49.66 0.77 48.67 0.77 47.65 C-0.26 47.39 -1.29 47.12 -2.36 46.84 C-5.88 45.84 -8.96 44.32 -12.23 42.65 C-13.22 42.41 -13.22 42.41 -14.23 42.15 C-17.12 41.43 -19.6 40.03 -22.23 38.65 C-22.23 37.99 -22.23 37.33 -22.23 36.65 C-22.93 36.57 -23.63 36.49 -24.36 36.4 C-27.23 35.65 -27.23 35.65 -30.17 33.53 C-33.04 31.39 -33.04 31.39 -36.06 31.76 C-39.88 32.84 -42 34.51 -45.04 37.03 C-49.4 40.46 -52.99 42.75 -58.39 44.02 C-60.62 44.79 -61.7 45.9 -63.23 47.65 C-62.66 44.37 -61.94 42.64 -59.23 40.65 C-58.17 40.39 -57.1 40.13 -56.01 39.87 C-51.9 38.55 -49.16 36.63 -45.92 33.9 C-44.69 32.9 -43.46 31.91 -42.23 30.91 C-41.26 30.11 -41.26 30.11 -40.27 29.3 C-35.97 25.83 -31.59 22.47 -27.22 19.09 C-23.19 15.97 -19.19 12.82 -15.22 9.62 C-14.41 8.96 -13.59 8.31 -12.75 7.64 C-11.18 6.38 -9.62 5.11 -8.07 3.83 C-7.36 3.27 -6.65 2.71 -5.93 2.13 C-5.31 1.62 -4.69 1.12 -4.05 0.6 C-2.23 -0.35 -2.23 -0.35 0 0 Z " fill="#EB8329" transform="translate(131.23095703125,28.345458984375)"/>
<path d="M0 0 C-1.98 0.99 -1.98 0.99 -4 2 C-2.87 6.11 -1.62 10.06 0 14 C-8.97 22.14 -18.42 29.6 -28 37 C-30 36 -30 36 -30.69 34.06 C-31.95 31.64 -31.95 31.64 -35.38 30.56 C-38.92 29.6 -38.92 29.6 -41.25 31.44 C-41.83 31.95 -42.41 32.47 -43 33 C-43.99 32.67 -44.98 32.34 -46 32 C-37.7 24.87 -29.26 17.99 -20.62 11.27 C-17.39 8.74 -14.19 6.15 -10.99 3.56 C-7.03 0.46 -5 -0.22 0 0 Z " fill="#C0C8EE" transform="translate(116,12)"/>
<path d="M0 0 C0.66 0.33 1.32 0.66 2 1 C2 1.66 2 2.32 2 3 C3.65 2.34 5.3 1.68 7 1 C7.26 1.57 7.52 2.15 7.79 2.74 C16.35 21.42 25.97 37.67 41 52 C42.33 53.33 43.67 54.67 45 56 C34.73 54.06 25.57 45.73 18 39 C17.23 38.32 16.46 37.65 15.66 36.95 C5.62 27.58 -1.32 15.4 -7 3 C-4.7 1.93 -2.36 0.94 0 0 Z " fill="#777E9A" transform="translate(54,166)"/>
<path d="M0 0 C0.33 0 0.66 0 1 0 C1.33 16.5 1.66 33 2 50 C6.95 49.67 11.9 49.34 17 49 C19.14 63.33 19.14 63.33 19 68 C18.51 67.01 18.51 67.01 18 66 C16.06 65.97 14.13 65.95 12.19 65.94 C11.11 65.93 10.03 65.91 8.92 65.9 C5.93 65.86 5.93 65.86 3 67 C2.51 67.99 2.51 67.99 2 69 C-0.63 62.06 -0.25 55.09 -0.2 47.75 C-0.19 46.37 -0.19 44.99 -0.19 43.61 C-0.18 40 -0.16 36.39 -0.14 32.78 C-0.12 29.08 -0.11 25.39 -0.1 21.7 C-0.08 14.46 -0.04 7.23 0 0 Z " fill="#BFC5DE" transform="translate(33,60)"/>
<path d="M0 0 C0 0.66 0 1.32 0 2 C4.13 1.43 4.13 1.43 8 0 C8.87 2.58 9.72 5.16 10.56 7.75 C10.81 8.48 11.06 9.21 11.31 9.96 C11.65 11.02 11.65 11.02 12 12.11 C12.22 12.76 12.43 13.41 12.65 14.08 C13.07 16.41 12.9 17.81 12 20 C11.01 20.33 10.02 20.66 9 21 C8.34 20.34 7.68 19.68 7 19 C6.01 19.66 5.02 20.32 4 21 C1.48 21.02 1.48 21.02 -1 20 C-2.51 17.23 -2.51 17.23 -3.69 13.75 C-4.28 12.04 -4.28 12.04 -4.89 10.3 C-5.25 9.21 -5.62 8.12 -6 7 C-6.38 6.1 -6.76 5.2 -7.14 4.27 C-8 2 -8 2 -8 -1 C-4.38 -2.21 -3.36 -1.54 0 0 Z " fill="#9CA2BD" transform="translate(47,148)"/>
<path d="M0 0 C0.66 0.33 1.32 0.66 2 1 C2 1.66 2 2.32 2 3 C3.65 2.34 5.3 1.68 7 1 C8.37 3.79 9.72 6.58 11.06 9.38 C11.45 10.17 11.84 10.96 12.24 11.78 C12.61 12.54 12.97 13.3 13.35 14.09 C13.86 15.14 13.86 15.14 14.38 16.21 C14.58 16.8 14.79 17.39 15 18 C14 20 14 20 12.44 20.69 C8.77 21.16 5.48 21.28 2 20 C-0.26 17.61 -1.58 14.89 -3 11.94 C-3.39 11.18 -3.79 10.42 -4.19 9.64 C-5.15 7.77 -6.08 5.89 -7 4 C-6.1 3.57 -6.1 3.57 -5.19 3.12 C-2.81 1.95 -2.81 1.95 0 0 Z " fill="#898FAB" transform="translate(54,166)"/>
<path d="M0 0 C0.88 0.32 0.88 0.32 1.77 0.65 C1.77 2.3 1.77 3.95 1.77 5.65 C1.11 5.7 0.45 5.75 -0.22 5.8 C-4.62 7.05 -7.73 9.62 -11.36 12.34 C-12.14 12.92 -12.92 13.5 -13.73 14.09 C-16.24 15.94 -18.73 17.79 -21.23 19.65 C-27.55 24.34 -33.88 29.01 -40.23 33.65 C-40.89 34.14 -41.54 34.62 -42.21 35.11 C-43.96 36.39 -45.72 37.65 -47.48 38.9 C-48.43 39.59 -49.39 40.28 -50.37 40.98 C-53.58 42.86 -56.65 43.7 -60.23 44.65 C-62.13 46.13 -62.13 46.13 -63.23 47.65 C-62.66 44.37 -61.94 42.64 -59.23 40.65 C-58.17 40.39 -57.1 40.13 -56.01 39.87 C-51.9 38.55 -49.16 36.63 -45.92 33.9 C-44.69 32.9 -43.46 31.91 -42.23 30.91 C-41.26 30.11 -41.26 30.11 -40.27 29.3 C-35.97 25.83 -31.59 22.47 -27.22 19.09 C-23.19 15.97 -19.19 12.82 -15.22 9.62 C-14.41 8.96 -13.59 8.31 -12.75 7.64 C-11.18 6.38 -9.62 5.11 -8.07 3.83 C-7.36 3.27 -6.65 2.71 -5.93 2.13 C-5.31 1.62 -4.69 1.12 -4.05 0.6 C-2.23 -0.35 -2.23 -0.35 0 0 Z " fill="#85879C" transform="translate(131.23095703125,28.345458984375)"/>
<path d="M0 0 C3.64 0.53 6.52 2.25 9.7 4.03 C11.38 4.96 11.38 4.96 13.09 5.92 C13.68 6.25 14.27 6.58 14.87 6.92 C16.7 7.94 18.53 8.96 20.36 9.98 C25.72 12.97 31.04 15.99 36.28 19.18 C37.04 19.64 37.8 20.11 38.58 20.58 C39.93 21.41 41.28 22.26 42.62 23.12 C47.22 25.95 50.76 26.48 56 27 C56.66 27.66 57.32 28.32 58 29 C57.5 30.48 57.5 30.48 57 32 C56.34 31.34 55.68 30.68 55 30 C52.94 29.52 52.94 29.52 50.56 29.22 C44.42 28.08 39.5 25.49 34.06 22.5 C33.07 21.97 32.08 21.44 31.07 20.9 C28.04 19.28 25.02 17.64 22 16 C19.27 14.52 16.54 13.05 13.8 11.58 C12.18 10.71 10.56 9.83 8.94 8.95 C8.21 8.56 7.49 8.17 6.74 7.77 C6.11 7.42 5.48 7.08 4.83 6.73 C2.71 5.75 2.71 5.75 -1 6 C-1.04 4.33 -1.04 2.67 -1 1 C-0.67 0.67 -0.34 0.34 0 0 Z " fill="#818A9C" transform="translate(149,26)"/>
<path d="M0 0 C0.45 7.11 -0.67 11.72 -4 18 C-6.31 18.25 -6.31 18.25 -9 18 C-12.56 14.31 -13.13 10.79 -13.06 5.81 C-13.05 4.91 -13.04 4.01 -13.04 3.08 C-13.02 2.39 -13.01 1.71 -13 1 C-8.61 0.3 -4.44 -0.11 0 0 Z " fill="#BABDE0" transform="translate(147,47)"/>
<path d="M0 0 C0.99 1.48 0.99 1.48 2 3 C3.66 3.35 5.33 3.68 7 4 C9.47 5.15 11.86 6.33 14.27 7.6 C14.95 7.95 15.63 8.31 16.33 8.67 C18.5 9.79 20.65 10.93 22.81 12.06 C24.28 12.83 25.75 13.6 27.22 14.36 C30.82 16.23 34.41 18.12 38 20 C37.67 20.66 37.34 21.32 37 22 C33.89 20.46 30.79 18.92 27.69 17.38 C26.77 16.92 25.86 16.47 24.92 16 C19.23 13.16 13.65 10.22 8.19 6.96 C5.64 5.67 5.64 5.67 1 6 C1 11.61 1 17.22 1 23 C0.67 23 0.34 23 0 23 C0 15.41 0 7.82 0 0 Z " fill="#8EBC5A" transform="translate(147,28)"/>
<path d="M0 0 C0.93 2.55 1.09 3.74 0.22 6.36 C-0.16 7.15 -0.54 7.94 -0.94 8.75 C-1.32 9.55 -1.7 10.35 -2.09 11.17 C-2.39 11.78 -2.69 12.38 -3 13 C-5.31 13.25 -5.31 13.25 -8 13 C-9.81 11.19 -9.81 11.19 -11 9 C-11 8.01 -11 7.02 -11 6 C-6.54 5.51 -6.54 5.51 -2 5 C-3.32 4.34 -4.64 3.68 -6 3 C-4.02 3 -2.04 3 0 3 C0 2.01 0 1.02 0 0 Z " fill="#959AC9" transform="translate(146,52)"/>
<path d="M0 0 C0.33 0 0.66 0 1 0 C1.33 3.63 1.66 7.26 2 11 C5.96 11 9.92 11 14 11 C14 11.66 14 12.32 14 13 C7.56 13.5 7.56 13.5 1 14 C1 15.65 1 17.3 1 19 C0.67 19 0.34 19 0 19 C0 12.73 0 6.46 0 0 Z " fill="#D6D0D1" transform="translate(133,34)"/>
<path d="M0 0 C0.33 0.66 0.66 1.32 1 2 C0.01 2.49 0.01 2.49 -1 3 C-0.67 3.66 -0.34 4.32 0 5 C-3.63 5 -7.26 5 -11 5 C-11 3.68 -11 2.36 -11 1 C-7.27 0.12 -3.83 -0.09 0 0 Z " fill="#A4A7D4" transform="translate(145,53)"/>
<path d="M0 0 C0.33 0 0.66 0 1 0 C1.33 2.64 1.66 5.28 2 8 C2.33 8 2.66 8 3 8 C3.29 15.43 3.29 15.43 1 19 C0.67 18.34 0.34 17.68 0 17 C-0.66 17.66 -1.32 18.32 -2 19 C-1.34 12.73 -0.68 6.46 0 0 Z " fill="#626985" transform="translate(221,98)"/>
<path d="M0 0 C0.33 0.66 0.66 1.32 1 2 C0.34 2 -0.32 2 -1 2 C-1 2.99 -1 3.98 -1 5 C-3 5.04 -5 5.04 -7 5 C-7.33 4.67 -7.66 4.34 -8 4 C-10.19 3.93 -12.38 3.92 -14.56 3.94 C-15.76 3.95 -16.96 3.96 -18.19 3.96 C-19.58 3.98 -19.58 3.98 -21 4 C-21 3.67 -21 3.34 -21 3 C-20.43 2.94 -19.87 2.89 -19.29 2.83 C-16.73 2.58 -14.18 2.32 -11.62 2.06 C-10.74 1.98 -9.85 1.89 -8.93 1.8 C-8.08 1.71 -7.23 1.62 -6.35 1.54 C-5.57 1.46 -4.78 1.38 -3.97 1.3 C-1.93 1.09 -1.93 1.09 0 0 Z " fill="#41475C" transform="translate(57,49)"/>
<path d="M0 0 C0 0.99 0 1.98 0 3 C-5.28 2.67 -10.56 2.34 -16 2 C-16 1.67 -16 1.34 -16 1 C-13.71 0.64 -11.42 0.29 -9.12 -0.06 C-7.85 -0.26 -6.57 -0.46 -5.26 -0.66 C-2 -1 -2 -1 0 0 Z " fill="#717790" transform="translate(145,10)"/>
<path d="M0 0 C1.98 0 3.96 0 6 0 C5.67 0.66 5.34 1.32 5 2 C6.65 2.33 8.3 2.66 10 3 C10 3.33 10 3.66 10 4 C4.85 4.09 0.08 3.85 -5 3 C-5 2.67 -5 2.34 -5 2 C-3.35 1.67 -1.7 1.34 0 1 C0 0.67 0 0.34 0 0 Z " fill="#676D87" transform="translate(201,36)"/>
<path d="M0 0 C0.33 1.65 0.66 3.3 1 5 C0.34 4.67 -0.32 4.34 -1 4 C-2.54 3.78 -4.08 3.59 -5.62 3.44 C-6.44 3.35 -7.26 3.27 -8.1 3.18 C-8.73 3.12 -9.35 3.06 -10 3 C-6.68 -0.06 -4.45 -0.3 0 0 Z " fill="#60667D" transform="translate(221,38)"/>
<path d="M0 0 C0.33 0.99 0.66 1.98 1 3 C0.01 4.48 0.01 4.48 -1 6 C-3.5 6.38 -3.5 6.38 -6 6 C-6.66 5.01 -7.32 4.02 -8 3 C-6.87 2.88 -5.73 2.75 -4.56 2.62 C-3.39 2.42 -2.21 2.21 -1 2 C-0.67 1.34 -0.34 0.68 0 0 Z " fill="#83899B" transform="translate(144,59)"/>
<path d="M0 0 C0 0.66 0 1.32 0 2 C-4.32 2.76 -7.74 3.16 -12 2 C-12 1.67 -12 1.34 -12 1 C-7.94 0.23 -4.14 -0.1 0 0 Z " fill="#4964B0" transform="translate(127,131)"/>
<path d="M0 0 C3.63 0.33 7.26 0.66 11 1 C9.51 2.48 9.51 2.48 8 4 C3.88 3.79 3.03 3.03 0 0 Z " fill="#C0C7E9" transform="translate(192,38)"/>
</svg>
